<?xml version="1.0" standalone="no"?>
<!DOCTYPE svg PUBLIC "-//W3C//DTD SVG 20010904//EN"
 "http://www.w3.org/TR/2001/REC-SVG-20010904/DTD/svg10.dtd">
<svg version="1.0" xmlns="http://www.w3.org/2000/svg"
 width="2178.000000pt" height="2178.000000pt" viewBox="0 0 2178.000000 2178.000000"
 preserveAspectRatio="xMidYMid meet">
<metadata>
Created by potrace 1.14, written by Peter Selinger 2001-2017
</metadata>
<g transform="translate(0.000000,2178.000000) scale(0.100000,-0.100000)"
fill="#000000" stroke="none">
<path d="M15876 20683 c-8 -8 -2618 -16 -5961 -18 -2112 -1 -3853 -5 -3870 -9
-117 -27 -207 -75 -285 -155 -36 -36 -77 -86 -91 -111 -14 -25 -131 -218 -259
-430 -317 -524 -489 -809 -710 -1175 -103 -170 -231 -382 -285 -470 -54 -88
-105 -173 -115 -190 -18 -31 -173 -289 -190 -315 -5 -8 -27 -44 -47 -78 -21
-35 -45 -76 -54 -90 -54 -89 -282 -464 -360 -593 -51 -85 -135 -224 -187 -309
-52 -85 -102 -167 -111 -182 -9 -15 -45 -75 -81 -134 -36 -59 -75 -124 -86
-143 -12 -20 -86 -142 -164 -271 -79 -129 -181 -298 -227 -375 -47 -77 -115
-189 -152 -250 -37 -60 -111 -184 -166 -275 -55 -91 -103 -167 -106 -170 -3
-3 -8 -10 -10 -15 -2 -6 -26 -48 -54 -93 -27 -46 -57 -95 -66 -110 -34 -57
-303 -500 -333 -546 -17 -28 -40 -66 -51 -85 -11 -20 -33 -58 -50 -84 -16 -27
-126 -207 -243 -400 -118 -194 -245 -404 -284 -467 -39 -63 -78 -128 -88 -145
-9 -16 -61 -102 -115 -190 -104 -169 -340 -558 -432 -710 -75 -125 -75 -125
-106 -172 -15 -23 -27 -44 -27 -47 0 -3 -16 -30 -35 -60 -40 -62 -221 -360
-336 -552 -44 -73 -90 -165 -105 -210 -43 -130 -39 -270 14 -400 25 -63 33
-75 182 -319 68 -110 128 -210 134 -222 6 -13 14 -23 19 -23 4 0 7 -4 7 -9 0
-5 41 -76 91 -157 50 -82 99 -161 108 -176 9 -15 70 -116 136 -224 66 -108
129 -211 140 -230 11 -18 63 -103 115 -189 52 -85 104 -170 114 -188 11 -18
88 -144 171 -282 84 -137 313 -515 510 -840 196 -324 367 -606 380 -625 12
-19 57 -93 100 -165 156 -259 767 -1266 808 -1331 14 -23 61 -88 104 -145 43
-57 85 -114 93 -125 8 -12 52 -72 97 -133 l81 -112 20 28 c11 16 53 84 94 153
41 69 132 220 203 335 155 255 282 463 298 490 7 10 23 37 37 60 13 22 29 49
36 60 6 11 74 124 151 250 184 302 275 453 340 563 21 35 43 71 48 80 269 448
360 603 375 640 20 51 17 148 -8 222 -21 61 -115 255 -212 435 -53 100 -155
285 -188 345 -14 25 -53 95 -87 155 -149 267 -248 441 -255 450 -4 6 -19 30
-32 55 -41 73 -173 300 -296 510 -98 166 -200 335 -484 805 -26 44 -48 86 -48
94 0 19 42 93 168 296 58 94 133 215 168 270 34 55 169 274 299 485 131 212
246 399 256 415 10 17 26 45 36 63 9 17 20 32 24 32 4 0 9 8 12 18 3 9 68 117
144 239 76 123 205 332 287 465 82 134 169 273 193 310 24 37 43 70 43 74 0 4
11 22 25 40 14 18 25 35 25 38 0 3 26 47 59 98 32 51 150 242 261 423 111 182
212 346 225 365 12 19 90 145 172 280 83 135 277 451 432 703 154 252 281 460
281 463 0 3 5 10 10 17 6 7 45 68 87 137 82 135 116 190 145 232 10 15 18 29
18 32 0 2 34 60 77 128 75 121 519 846 676 1103 43 72 85 137 93 145 13 13
359 15 2982 17 1632 0 3239 4 3572 7 894 7 1200 8 1250 1 204 -29 298 -107
425 -355 50 -97 194 -338 290 -485 41 -64 75 -119 75 -124 0 -9 -2229 -7
-5240 4 -1735 6 -2279 6 -2320 -1 -144 -22 -252 -76 -355 -179 -75 -76 -99
-111 -400 -614 -176 -294 -331 -553 -345 -576 -14 -23 -54 -90 -90 -149 -36
-59 -94 -155 -130 -214 -36 -59 -72 -118 -81 -132 -9 -14 -54 -88 -101 -165
-94 -155 -323 -532 -338 -555 -238 -383 -260 -426 -276 -529 -17 -102 5 -224
55 -315 15 -28 116 -184 223 -346 227 -344 315 -478 426 -650 45 -69 85 -129
89 -135 5 -5 20 -28 33 -50 13 -22 28 -41 32 -43 4 -2 8 -7 8 -11 0 -5 26 -48
58 -97 86 -130 258 -393 337 -514 38 -58 153 -232 257 -388 103 -156 188 -290
188 -299 0 -8 -33 -67 -72 -131 -40 -64 -75 -121 -78 -127 -27 -56 -455 -690
-670 -993 -118 -167 -224 -316 -235 -332 -46 -65 -252 -348 -381 -521 -77
-103 -147 -197 -157 -210 -9 -13 -189 -253 -398 -534 -345 -462 -616 -826
-709 -956 -218 -301 -310 -428 -334 -463 -16 -22 -43 -61 -60 -86 -17 -24 -35
-49 -39 -55 -47 -57 -527 -770 -645 -955 -165 -261 -263 -433 -287 -503 -44
-134 -33 -265 36 -407 17 -36 60 -126 94 -200 34 -74 86 -184 114 -244 28 -59
51 -110 51 -111 0 -2 25 -55 55 -120 30 -64 55 -118 55 -120 0 -2 25 -57 56
-122 31 -65 75 -161 99 -213 24 -52 56 -124 73 -160 150 -326 298 -665 510
-1165 55 -130 246 -606 268 -669 21 -58 96 -165 156 -222 65 -62 122 -96 213
-125 l70 -23 2305 1 c1268 1 3756 2 5530 2 2837 1 3233 3 3289 16 151 36 269
123 365 269 58 88 176 281 413 676 84 140 157 262 163 270 9 15 73 123 100
170 8 14 29 48 46 75 18 28 130 217 251 420 236 397 269 452 283 475 6 8 36
60 68 115 32 55 155 262 272 460 235 397 463 783 490 830 9 17 53 91 97 165
44 74 134 227 200 340 67 113 174 295 239 405 150 256 312 532 334 570 10 17
68 115 129 219 61 104 111 190 111 191 0 1 25 45 57 96 31 52 70 119 88 149
17 30 203 348 412 705 209 358 390 666 401 685 11 19 31 55 46 80 14 25 26 47
26 50 0 3 -774 5 -1720 5 l-1720 0 -38 -65 c-21 -36 -92 -157 -157 -270 -186
-324 -264 -458 -320 -555 -29 -49 -62 -106 -73 -125 -18 -33 -98 -171 -230
-400 -30 -52 -89 -153 -130 -225 -41 -71 -100 -173 -130 -225 -30 -52 -64
-111 -74 -130 -11 -19 -24 -39 -28 -45 -4 -5 -21 -35 -37 -65 -17 -30 -103
-181 -193 -335 -89 -154 -173 -300 -187 -325 -14 -25 -29 -50 -34 -56 -5 -6
-35 -62 -67 -125 -53 -103 -179 -308 -575 -929 -253 -398 -405 -630 -415 -631
-23 -4 -3491 -19 -5227 -23 -660 -1 -1212 1 -1226 6 -26 9 -101 124 -334 513
-60 99 -142 231 -182 294 -60 91 -73 119 -68 139 15 59 434 703 767 1177 73
105 94 135 178 250 20 28 79 109 130 180 160 222 772 1047 807 1090 5 6 20 25
33 44 14 19 33 44 42 55 9 12 35 46 57 76 22 30 44 60 48 65 18 21 398 532
599 805 435 591 863 1211 1148 1668 132 209 185 312 205 396 12 48 16 170 7
211 -13 66 -31 119 -63 185 -33 72 -54 93 -438 475 -521 519 -917 904 -1175
1145 -25 23 -77 72 -115 108 -39 37 -119 112 -179 167 -59 55 -123 114 -140
130 -18 17 -68 62 -110 100 -43 39 -88 79 -100 90 -103 93 -142 128 -200 179
-61 53 -66 61 -62 90 7 38 30 126 48 181 l13 40 65 -3 c36 -1 583 -4 1215 -6
633 -2 1688 -7 2345 -11 657 -4 1497 -8 1865 -10 369 -2 1210 -7 1870 -10
1634 -10 1919 -10 2000 -1 327 35 605 165 793 371 139 151 239 360 267 555 4
25 9 56 11 70 6 39 6 241 0 280 -3 19 -8 51 -10 70 -30 230 -161 630 -296 901
-57 115 -51 105 -176 312 -49 81 -93 156 -99 165 -5 10 -29 47 -51 83 -84 131
-429 679 -439 696 -5 10 -35 56 -65 103 -54 82 -310 484 -417 652 -29 46 -57
88 -63 95 -5 7 -10 15 -10 18 0 3 -26 45 -58 93 -32 48 -61 94 -65 102 -4 8
-29 49 -56 90 -154 234 -546 872 -849 1382 -133 224 -214 334 -335 451 -199
194 -433 307 -727 351 -105 16 -203 20 -548 20 -217 1 -395 0 -396 -1z"/>
</g>
</svg>
